<svg width="225" height="298" viewBox="0 0 225 298" fill="none" xmlns="http://www.w3.org/2000/svg">
<path d="M23.7035 38C23.7035 77.9717 48.3411 101.955 97.6164 114.577L149.815 126.779C196.584 137.719 224.98 164.647 224.98 208.406C225.398 227.34 219.134 245.853 207.859 261C207.859 217.242 185.31 193.679 131.441 179.374L80.0777 167.592C38.7366 158.336 7 136.036 7 88.4906C7 70.3981 12.8462 52.3057 23.7035 38Z" fill="#F04939"/>
<path d="M175.811 197.546C197.944 211.836 207.966 232.011 207.966 261.013C189.174 284.97 157.019 298 119.017 298C55.1236 298 9.60487 266.056 0 210.996H61.3876C69.3221 236.214 90.2022 247.983 118.599 247.983C152.425 248.403 175.393 229.91 175.811 197.546ZM55.9588 97.512C35.0787 84.9027 22.9682 62.2059 23.8034 37.8279C41.7603 14.2906 72.6629 0 110.247 0C175.811 0 213.395 34.8858 223 83.6417H163.7C157.019 64.3075 140.732 49.1763 111.082 49.1763C78.927 49.5966 57.2116 68.0903 55.9588 97.512Z" fill="#F04939" fill-opacity="0.5"/>
</svg>
